<svg version="1.1" id="Layer_1" xmlns="http://www.w3.org/2000/svg" xmlns:xlink="http://www.w3.org/1999/xlink" x="0px" y="0px" style="enable-background:new 0 0 792 612;" xml:space="preserve" viewBox="174.05 248.93 442.28 157.35">
<style type="text/css">
	.st0{fill:url(#SVGID_1_);}
	.st1{fill:url(#SVGID_00000160874549402500425810000012951227500332945037_);}
	.st2{fill:url(#SVGID_00000004514008383412240480000010826234820262680193_);}
	.st3{fill:#9ACA3C;}
	.st4{fill:#4E5868;}
	.st5{fill:none;}
	.st6{fill:#115E5F;}
	.st7{font-family:'Raleway-Medium';}
	.st8{font-size:36px;}
</style>
<g>
	<g>
		<g>
			<linearGradient id="SVGID_1_" gradientUnits="userSpaceOnUse" x1="174.0589" y1="306.0976" x2="237.43" y2="306.0976">
				<stop offset="0" style="stop-color:#115E5F"/>
				<stop offset="0.2332" style="stop-color:#126767"/>
				<stop offset="0.6477" style="stop-color:#13817F"/>
				<stop offset="0.9" style="stop-color:#0D9793"/>
			</linearGradient>
			<path class="st0" d="M221.25,363.26c-3.2,0-6.4-0.32-9.5-0.96c-3.03-0.62-6.02-1.55-8.87-2.75c-2.8-1.19-5.5-2.65-8.02-4.35     c-2.5-1.69-4.85-3.62-6.98-5.76c-2.13-2.13-4.07-4.48-5.76-6.98c-1.71-2.52-3.17-5.22-4.35-8.02c-1.21-2.85-2.13-5.83-2.75-8.87     c-0.67-3.28-0.96-6.5-0.96-10.76v-57.52c0-4.61,3.74-8.35,8.35-8.35s8.35,3.74,8.35,8.35v57.52c0,3.12,0.18,5.27,0.62,7.42     c0.4,1.96,1,3.88,1.77,5.71c0.76,1.81,1.71,3.55,2.81,5.18c1.09,1.62,2.35,3.14,3.73,4.52c1.38,1.38,2.9,2.64,4.52,3.73     c1.63,1.1,3.37,2.04,5.18,2.81c1.83,0.78,3.76,1.37,5.71,1.77c4.02,0.82,8.29,0.82,12.31,0c4.51-0.93,8.93,1.99,9.86,6.51     c0.93,4.52-1.99,8.93-6.51,9.86C227.65,362.94,224.45,363.26,221.25,363.26z"/>
		</g>
		<g>
			
				<linearGradient id="SVGID_00000056397377526288208750000004741571932566538402_" gradientUnits="userSpaceOnUse" x1="262.9268" y1="300.5651" x2="249.0704" y2="352.2778">
				<stop offset="0" style="stop-color:#3EB549"/>
				<stop offset="0.2157" style="stop-color:#38AC5B"/>
				<stop offset="0.688" style="stop-color:#199B8A"/>
				<stop offset="0.7957" style="stop-color:#0D9793"/>
			</linearGradient>
			<path style="fill:url(#SVGID_00000056397377526288208750000004741571932566538402_);" d="M248.72,351.89     c-2.14,0-4.27-0.82-5.9-2.45c-3.26-3.26-3.26-8.55,0-11.81c1.38-1.38,2.64-2.9,3.73-4.52c1.1-1.63,2.05-3.37,2.81-5.18     c0.78-1.83,1.37-3.76,1.77-5.71c0.41-2.01,0.62-4.08,0.62-6.15s-0.21-4.14-0.62-6.15c-0.93-4.52,1.99-8.93,6.51-9.86     c4.51-0.93,8.93,1.99,9.86,6.51c0.64,3.11,0.96,6.3,0.96,9.5c0,3.2-0.32,6.4-0.96,9.5c-0.62,3.04-1.55,6.02-2.75,8.87     c-1.18,2.8-2.65,5.5-4.35,8.02c-1.69,2.5-3.62,4.84-5.76,6.98C252.99,351.07,250.85,351.89,248.72,351.89z"/>
		</g>
		<g>
			
				<linearGradient id="SVGID_00000003805535246175740200000013214379653130285225_" gradientUnits="userSpaceOnUse" x1="220.7257" y1="283.311" x2="257.0656" y2="283.311">
				<stop offset="0" style="stop-color:#9ACA3C"/>
				<stop offset="0.2675" style="stop-color:#7AC143"/>
				<stop offset="0.5367" style="stop-color:#5DBA47"/>
				<stop offset="0.7876" style="stop-color:#48B649"/>
				<stop offset="1" style="stop-color:#3EB549"/>
			</linearGradient>
			<path style="fill:url(#SVGID_00000003805535246175740200000013214379653130285225_);" d="M248.72,296.96     c-2.14,0-4.27-0.82-5.9-2.45c-1.38-1.38-2.9-2.64-4.52-3.73c-1.63-1.1-3.37-2.05-5.18-2.81c-1.84-0.78-3.76-1.37-5.71-1.77     c-4.52-0.92-7.43-5.34-6.51-9.86c0.93-4.52,5.34-7.44,9.86-6.51c3.04,0.62,6.02,1.55,8.87,2.75c2.8,1.18,5.5,2.65,8.02,4.35     c2.49,1.68,4.84,3.62,6.98,5.76c3.26,3.26,3.26,8.55,0,11.81C252.99,296.14,250.85,296.96,248.72,296.96z"/>
		</g>
		<circle class="st3" cx="206.13" cy="280.28" r="8.34"/>
	</g>
	<g>
		<g>
			<path class="st4" d="M364.15,278.25c-3.02,0-5.39,2.42-5.39,5.51c0,2.97,2.42,5.39,5.39,5.39c3.09,0,5.51-2.36,5.51-5.39     C369.66,280.66,367.24,278.25,364.15,278.25z"/>
			<path class="st4" d="M362.34,352.6h4.01c1.16,0,2.21-1.05,2.21-2.21v-46.88c0-1.16-1.05-2.21-2.21-2.21h-4.01     c-1.16,0-2.21,1.05-2.21,2.21v46.88C360.13,351.55,361.18,352.6,362.34,352.6z"/>
		</g>
		<path class="st4" d="M404.77,300.01c-14.07,0-25.51,12.03-25.51,26.81c0,14.93,11.44,27.07,25.51,27.07    c14.07,0,25.52-12.14,25.52-27.07C430.28,312.04,418.84,300.01,404.77,300.01z M404.77,345.99c-9.58,0-17.09-8.42-17.09-19.16    c0-10.53,7.51-18.77,17.09-18.77c9.58,0,17.09,8.24,17.09,18.77C421.85,337.57,414.35,345.99,404.77,345.99z"/>
		<path class="st4" d="M449.66,274.78c0-1.16-1.05-2.21-2.21-2.21h-4.02c-1.16,0-2.21,1.05-2.21,2.21v75.62    c0,1.16,1.05,2.21,2.21,2.21h4.02c1.16,0,2.21-1.05,2.21-2.21V274.78z"/>
		<path class="st4" d="M598.71,353.9c8.47,0,17.62-5.5,17.62-14.38c0-9.34-8.17-13.24-16.82-17.38l-0.51-0.25    c-5.15-2.51-9.22-4.49-9.22-8.79c0-2.63,2.01-5.43,7.64-5.43c4.8,0,10.25,3.01,10.48,3.14c0.32,0.18,0.7,0.27,1.11,0.27    c0.97,0,1.85-0.51,2.3-1.34l1.03-2.07c0.7-1.29,0.38-2.97-0.69-3.69c-2.81-1.92-8.02-3.97-14.23-3.97    c-11.88,0-16.19,7.9-16.19,13.21c0,8.59,7.54,13.01,14.62,16.48c7.79,3.9,11.54,5.98,11.54,10.59c0,3.87-3.49,6.47-8.67,6.47    c-6.62,0-12.27-4.54-12.33-4.59c-0.51-0.32-1.06-0.5-1.57-0.5c-0.66,0-1.23,0.3-1.55,0.83c-0.15,0.25-0.38,0.68-0.63,1.15    c-0.41,0.75-0.86,1.61-1.18,2.09c-0.33,0.77,0.05,1.95,0.6,2.38C585.24,350.6,590.46,353.9,598.71,353.9z"/>
		<path class="st4" d="M324.56,300.66c-6.14,0-11.82,2.21-16.43,6.4l-0.42,0.38v-32.42c0-1.16-1.05-2.21-2.21-2.21h-4.01    c-1.16,0-2.21,1.05-2.21,2.21v75.62c0,1.16,1.05,2.21,2.21,2.21h4.01c1.13,0,1.76-0.97,1.96-1.87l0.66-2.95    c4.56,4.19,10.35,6.51,16.45,6.51c14.2,0,25.75-12.14,25.75-27.07C350.31,312.69,338.76,300.66,324.56,300.66z M324.56,346.63    c-9.67,0-17.24-8.42-17.24-19.16c0-10.53,7.57-18.77,17.24-18.77c9.67,0,17.24,8.24,17.24,18.77    C341.8,338.22,334.23,346.63,324.56,346.63z"/>
		<path class="st4" d="M548.78,300.66c-6.14,0-11.82,2.21-16.43,6.4l-0.42,0.38v-32.42c0-1.16-1.05-2.21-2.21-2.21h-4.01    c-1.16,0-2.21,1.05-2.21,2.21v75.62c0,1.16,1.05,2.21,2.21,2.21h4.01c1.13,0,1.76-0.97,1.96-1.87l0.66-2.95    c4.56,4.19,10.35,6.51,16.45,6.51c14.2,0,25.75-12.14,25.75-27.07C574.53,312.69,562.98,300.66,548.78,300.66z M548.78,346.63    c-9.67,0-17.24-8.42-17.24-19.16c0-10.53,7.57-18.77,17.24-18.77c9.67,0,17.24,8.24,17.24,18.77    C566.02,338.22,558.45,346.63,548.78,346.63z"/>
		<path class="st4" d="M508.85,300.66h-4.02c-1.16,0-2.21,1.05-2.21,2.21v4.58l-0.42-0.38c-4.61-4.19-10.29-6.4-16.43-6.4    c-14.2,0-25.75,12.03-25.75,26.81c0,14.93,11.55,27.07,25.75,27.07c6.1,0,11.9-2.32,16.45-6.51l0.66,2.95    c0.2,0.9,0.82,1.87,1.96,1.87h4.01c1.16,0,2.21-1.05,2.21-2.21v-47.78C511.06,301.71,510.01,300.66,508.85,300.66z M485.78,346.63    c-9.67,0-17.24-8.42-17.24-19.16c0-10.53,7.57-18.77,17.24-18.77s17.24,8.24,17.24,18.77    C503.02,338.22,495.45,346.63,485.78,346.63z"/>
	</g>
</g>
<rect x="445.45" y="371" class="st5" width="170.55" height="32"/>
<text transform="matrix(1 0 0 1 473.5137 397.2803)" class="st6 st7 st8">Connect</text>
</svg>